<?xml version="1.0" encoding="utf-8"?>
<!-- Generator: Adobe Illustrator 26.5.0, SVG Export Plug-In . SVG Version: 6.00 Build 0)  -->
<svg version="1.1" id="Layer_1" xmlns="http://www.w3.org/2000/svg" xmlns:xlink="http://www.w3.org/1999/xlink" x="0px" y="0px"
	 viewBox="0 0 87.96 29.27" style="enable-background:new 0 0 87.96 29.27;" xml:space="preserve">
<style type="text/css">
	.st0{fill:#FFFFFF;}
	.st1{fill:url(#SVGID_1_);}
	.st2{fill:url(#SVGID_00000064325771780501989470000004437367969349538986_);}
</style>
<g>
	<path class="st0" d="M45.22,28.03V1.23h6.15c1.21,0,2.27,0.13,3.16,0.4c0.89,0.26,1.64,0.67,2.23,1.22c0.6,0.55,1.04,1.25,1.32,2.1
		c0.29,0.85,0.43,1.85,0.43,2.99c0,1.1-0.14,2.06-0.41,2.86c-0.28,0.81-0.69,1.44-1.26,1.9c-0.56,0.46-1.29,0.76-2.17,0.89
		c1.08,0.24,1.95,0.66,2.61,1.24c0.66,0.58,1.15,1.33,1.47,2.25c0.32,0.92,0.48,2.01,0.48,3.29c0,1.15-0.13,2.2-0.4,3.14
		c-0.26,0.95-0.68,1.75-1.24,2.42c-0.56,0.66-1.28,1.17-2.15,1.54c-0.87,0.36-1.9,0.55-3.09,0.55H45.22z M48.96,12.41h2.22
		c1.06,0,1.89-0.15,2.48-0.45c0.6-0.3,1.01-0.78,1.26-1.44c0.24-0.66,0.36-1.52,0.36-2.58c0-1.24-0.19-2.13-0.56-2.68
		c-0.38-0.55-0.96-0.9-1.75-1.04c-0.79-0.14-1.83-0.21-3.11-0.21h-0.89V12.41z M48.96,25.35h2.51c1.68,0,2.8-0.39,3.36-1.17
		c0.56-0.78,0.84-2.05,0.84-3.79c0-1.12-0.15-2.07-0.45-2.83c-0.3-0.76-0.77-1.33-1.42-1.72c-0.65-0.39-1.53-0.58-2.63-0.58h-2.22
		V25.35z"/>
	<path class="st0" d="M64.21,28.12v-9.46L58.42,1.32h3.47l4.1,12.94l4.04-12.94h3.51l-5.76,17.34v9.46H64.21z"/>
	<path class="st0" d="M74.83,28.03v-2.68l7.87-21.44h-7.38V1.23h11.35v1.62l-8.3,22.5h8.3v2.68H74.83z"/>
	<linearGradient id="SVGID_1_" gradientUnits="userSpaceOnUse" x1="0.9515" y1="14.7206" x2="41.8336" y2="14.7206">
		<stop  offset="0" style="stop-color:#EF589C"/>
		<stop  offset="0.9745" style="stop-color:#F15A62"/>
	</linearGradient>
	<path class="st1" d="M21.35,28.45c-6.36,0-12.72,0-19.07,0c-1.26,0-1.31-0.05-1.31-1.3c0-2.2,0.02-4.4-0.01-6.61
		c-0.01-0.65,0.22-0.97,0.87-1.17c2.1-0.63,3.41-2.35,3.45-4.43c0.05-2.28-1.06-4.03-3.21-4.76c-0.87-0.3-1.14-0.72-1.12-1.6
		C1.01,6.44,0.97,4.3,0.97,2.15c0-1.06,0.1-1.16,1.11-1.16c12.88,0,25.76,0,38.64,0c0.98,0,1.09,0.12,1.09,1.1
		c0.01,2.26-0.01,4.51,0.01,6.77c0.01,0.67-0.19,1.05-0.88,1.26c-2.17,0.67-3.44,2.42-3.44,4.61c0,2.23,1.28,4.01,3.48,4.66
		c0.67,0.2,0.85,0.55,0.84,1.19c-0.02,2.28-0.03,4.57,0,6.85c0.01,0.81-0.31,1.04-1.08,1.03C34.29,28.44,27.82,28.45,21.35,28.45z
		 M16.64,22.14c4.18,0.23,7.57-3.63,7.5-7.36c-0.08-4.21-3.3-7.51-7.48-7.5c-4.13,0.01-7.38,3.33-7.41,7.48
		C9.21,19,12.95,22.35,16.64,22.14z M31.1,5.05c0.02,0.55-0.21,1.29,0.85,1.23c0.86-0.04,0.92-0.09,0.92-1.3
		c0-0.08-0.01-0.16,0-0.24c0.08-0.71-0.24-0.94-0.95-0.95C30.94,3.78,31.11,4.43,31.1,5.05z M31.1,17.9c0,0.15,0.01,0.23,0,0.31
		c-0.06,0.62,0.12,0.97,0.85,0.97c0.74,0,0.99-0.3,0.93-0.99c-0.02-0.16,0-0.33,0-0.49c-0.01-0.93-0.2-1.09-1.13-0.99
		C30.84,16.8,31.19,17.49,31.1,17.9z M32.87,24.53c0-0.22-0.01-0.3,0-0.38c0.06-0.66-0.13-1.01-0.9-1.01
		c-0.78,0.01-0.93,0.4-0.88,1.04c0.01,0.19,0.02,0.38,0,0.57c-0.06,0.64,0.22,0.85,0.86,0.88C32.95,25.67,32.9,25.05,32.87,24.53z
		 M33.04,11.38c-0.2-0.36-0.31-0.87-0.62-1.04c-0.27-0.15-1.03,0-1.08,0.17c-0.17,0.6-0.2,1.27-0.14,1.9
		c0.01,0.14,0.63,0.29,0.97,0.31C33.12,12.74,32.79,11.97,33.04,11.38z"/>
	
		<linearGradient id="SVGID_00000026143646733718339780000017920358933376585120_" gradientUnits="userSpaceOnUse" x1="12.8817" y1="14.7453" x2="21.8455" y2="14.7453">
		<stop  offset="0" style="stop-color:#EF589C"/>
		<stop  offset="0.9745" style="stop-color:#F15A62"/>
	</linearGradient>
	<path style="fill:url(#SVGID_00000026143646733718339780000017920358933376585120_);" d="M13.95,9.74
		c0.17,0.07,0.43,0.15,0.67,0.28c2.13,1.21,4.25,2.41,6.36,3.65c1.17,0.68,1.15,1.45-0.04,2.14c-2.13,1.25-4.27,2.49-6.42,3.71
		c-0.91,0.52-1.6,0.17-1.62-0.88c-0.04-2.58-0.02-5.17,0-7.75C12.91,10.28,13.16,9.81,13.95,9.74z"/>
</g>
</svg>
